<svg width="512" height="512" viewBox="0 0 512 512" fill="none" xmlns="http://www.w3.org/2000/svg">
<path d="M432 72H80C66.7452 72 56 82.7452 56 96V408C56 421.255 66.7452 432 80 432H432C445.255 432 456 421.255 456 408V96C456 82.7452 445.255 72 432 72Z" fill="#38D1BF"/>
<path d="M420 96H92C85.3726 96 80 101.373 80 108V396C80 402.627 85.3726 408 92 408H420C426.627 408 432 402.627 432 396V108C432 101.373 426.627 96 420 96Z" fill="white"/>
<path d="M256 100C271.464 100 284 87.464 284 72C284 56.536 271.464 44 256 44C240.536 44 228 56.536 228 72C228 87.464 240.536 100 256 100Z" fill="#38D1BF"/>
<path d="M256 86C263.732 86 270 79.732 270 72C270 64.268 263.732 58 256 58C248.268 58 242 64.268 242 72C242 79.732 248.268 86 256 86Z" fill="white"/>
</svg>
