<svg width="512" height="512" viewBox="0 0 512 512" fill="none" xmlns="http://www.w3.org/2000/svg">
<path d="M252 44C267.464 44 280 56.536 280 72C280 87.464 267.464 100 252 100C236.536 100 224 87.464 224 72C224 56.536 236.536 44 252 44ZM252 58C244.268 58 238 64.268 238 72C238 79.732 244.268 86 252 86C259.732 86 266 79.732 266 72C266 64.268 259.732 58 252 58Z" fill="#38D1BF"/>
<path d="M432 86C445.255 86 456 96.7452 456 110V422C456 435.255 445.255 446 432 446H80C66.7452 446 56 435.255 56 422V110C56 96.7452 66.7452 86 80 86H432ZM92 106C85.3726 106 80 111.373 80 118V406C80 412.627 85.3726 418 92 418H420C426.627 418 432 412.627 432 406V118C432 111.373 426.627 106 420 106H92Z" fill="#38D1BF"/>
<rect x="455" y="135" width="24" height="215" fill="#38D1BF"/>
<rect x="455" y="113" width="24" height="17" fill="#38D1BF"/>
<path d="M467.558 374.234L455.015 350.453L479.264 350.03L467.558 374.234Z" fill="#38D1BF"/>
<rect x="119" y="355.304" width="77.9588" height="45.8335" transform="rotate(-45 119 355.304)" fill="#38D1BF"/>
<rect x="364.125" y="387.713" width="77.9588" height="45.8335" transform="rotate(-135 364.125 387.713)" fill="#38D1BF"/>
<rect x="179" y="314.304" width="205.616" height="19.9075" transform="rotate(-45 179 314.304)" fill="#38D1BF"/>
<rect x="299.962" y="149.064" width="35.1853" height="68.0559" transform="rotate(-45 299.962 149.064)" fill="#38D1BF"/>
<path d="M355 189.678L372.678 172L386.237 195.061L377.945 212.623L355 189.678Z" fill="#38D1BF"/>
<rect x="324.392" y="328.381" width="205.616" height="19.9075" transform="rotate(-135 324.392 328.381)" fill="#38D1BF"/>
<path d="M176.872 196.205L136.872 156.205L169.609 123.468L209.609 163.468L200.5 189.5L176.872 196.205Z" fill="#38D1BF"/>
</svg>
